<?xml version="1.0" encoding="UTF-8"?>
<svg xmlns="http://www.w3.org/2000/svg" xmlns:xlink="http://www.w3.org/1999/xlink" width="38px" height="37px" viewBox="0 0 37 37" version="1.1">
<g id="surface1">
<path style=" stroke:none;fill-rule:nonzero;fill:rgb(20%,40%,20%);fill-opacity:1;" d="M 20.972656 1.25 C 20.972656 0.5625 21.632812 0 22.457031 0 C 23.28125 0 23.941406 0.558594 23.941406 1.25 L 23.941406 6.710938 C 23.941406 7.394531 23.28125 7.957031 22.457031 7.957031 C 21.632812 7.957031 20.972656 7.398438 20.972656 6.710938 Z M 27.5 17.574219 C 28.78125 17.574219 30.003906 17.835938 31.121094 18.3125 C 32.285156 18.804688 33.328125 19.527344 34.199219 20.421875 C 35.074219 21.3125 35.777344 22.386719 36.257812 23.574219 C 36.71875 24.71875 36.976562 25.972656 36.976562 27.285156 C 36.976562 28.597656 36.71875 29.851562 36.257812 31 C 35.777344 32.191406 35.074219 33.261719 34.199219 34.15625 C 33.328125 35.050781 32.28125 35.769531 31.125 36.261719 C 30.007812 36.738281 28.78125 37 27.5 37 C 26.222656 37 24.996094 36.738281 23.878906 36.261719 C 22.714844 35.769531 21.671875 35.050781 20.800781 34.15625 C 19.929688 33.261719 19.222656 32.1875 18.742188 31 C 18.28125 29.851562 18.023438 28.597656 18.023438 27.285156 C 18.023438 25.972656 18.28125 24.71875 18.742188 23.574219 C 19.222656 22.378906 19.929688 21.3125 20.800781 20.417969 C 21.671875 19.523438 22.71875 18.800781 23.875 18.308594 C 24.996094 17.835938 26.214844 17.574219 27.5 17.574219 Z M 26.789062 23.226562 C 26.789062 22.992188 26.882812 22.78125 27.03125 22.625 C 27.183594 22.472656 27.390625 22.375 27.621094 22.375 C 27.855469 22.375 28.0625 22.472656 28.210938 22.625 C 28.363281 22.78125 28.453125 22.992188 28.453125 23.230469 L 28.453125 27.773438 L 31.769531 29.789062 L 31.796875 29.808594 C 31.980469 29.925781 32.097656 30.109375 32.148438 30.308594 C 32.199219 30.519531 32.175781 30.746094 32.0625 30.945312 L 32.058594 30.953125 C 32.050781 30.964844 32.042969 30.976562 32.035156 30.984375 C 31.917969 31.167969 31.742188 31.292969 31.546875 31.34375 C 31.34375 31.394531 31.121094 31.371094 30.929688 31.253906 L 27.226562 29.007812 C 27.097656 28.9375 26.988281 28.832031 26.910156 28.703125 C 26.832031 28.574219 26.785156 28.421875 26.785156 28.261719 Z M 33.023438 21.621094 C 32.304688 20.882812 31.445312 20.289062 30.492188 19.882812 C 29.570312 19.492188 28.558594 19.28125 27.5 19.28125 C 26.4375 19.28125 25.425781 19.496094 24.507812 19.882812 C 23.554688 20.289062 22.695312 20.882812 21.972656 21.621094 C 21.25 22.363281 20.671875 23.242188 20.277344 24.21875 C 19.894531 25.164062 19.6875 26.199219 19.6875 27.285156 C 19.6875 28.375 19.898438 29.410156 20.277344 30.351562 C 20.671875 31.328125 21.25 32.210938 21.972656 32.949219 C 22.695312 33.691406 23.554688 34.285156 24.507812 34.6875 C 25.425781 35.078125 26.4375 35.292969 27.5 35.292969 C 28.558594 35.292969 29.570312 35.078125 30.492188 34.6875 C 31.445312 34.285156 32.304688 33.691406 33.023438 32.949219 C 34.441406 31.5 35.3125 29.5 35.3125 27.285156 C 35.3125 26.199219 35.101562 25.164062 34.722656 24.21875 C 34.328125 23.242188 33.746094 22.363281 33.023438 21.621094 Z M 4.070312 17.675781 C 3.988281 17.675781 3.910156 17.296875 3.910156 16.832031 C 3.910156 16.367188 3.976562 15.992188 4.070312 15.992188 L 8.125 15.992188 C 8.207031 15.992188 8.285156 16.371094 8.285156 16.832031 C 8.285156 17.296875 8.21875 17.675781 8.125 17.675781 Z M 10.53125 17.675781 C 10.449219 17.675781 10.375 17.296875 10.375 16.832031 C 10.375 16.367188 10.4375 15.992188 10.53125 15.992188 L 14.585938 15.992188 C 14.667969 15.992188 14.746094 16.371094 14.746094 16.832031 C 14.746094 17.296875 14.679688 17.675781 14.585938 17.675781 Z M 16.992188 17.675781 C 16.910156 17.675781 16.835938 17.296875 16.835938 16.832031 C 16.835938 16.367188 16.902344 15.992188 16.992188 15.992188 L 21.046875 15.992188 C 21.128906 15.992188 21.207031 16.367188 21.207031 16.828125 C 20.800781 17.089844 20.410156 17.371094 20.035156 17.675781 Z M 4.082031 22.507812 C 3.996094 22.507812 3.921875 22.128906 3.921875 21.664062 C 3.921875 21.199219 3.988281 20.820312 4.082031 20.820312 L 8.132812 20.820312 C 8.21875 20.820312 8.292969 21.199219 8.292969 21.664062 C 8.292969 22.128906 8.226562 22.507812 8.132812 22.507812 Z M 10.542969 22.507812 C 10.457031 22.507812 10.382812 22.128906 10.382812 21.664062 C 10.382812 21.199219 10.449219 20.820312 10.542969 20.820312 L 14.59375 20.820312 C 14.679688 20.820312 14.753906 21.199219 14.753906 21.664062 C 14.753906 22.128906 14.6875 22.507812 14.59375 22.507812 Z M 4.089844 27.34375 C 4.003906 27.34375 3.929688 26.964844 3.929688 26.5 C 3.929688 26.035156 3.996094 25.65625 4.089844 25.65625 L 8.140625 25.65625 C 8.226562 25.65625 8.300781 26.035156 8.300781 26.5 C 8.300781 26.964844 8.234375 27.34375 8.140625 27.34375 Z M 10.550781 27.34375 C 10.464844 27.34375 10.390625 26.964844 10.390625 26.5 C 10.390625 26.035156 10.457031 25.65625 10.550781 25.65625 L 14.601562 25.65625 C 14.6875 25.65625 14.761719 26.035156 14.761719 26.5 C 14.761719 26.964844 14.695312 27.34375 14.601562 27.34375 Z M 7.632812 1.25 C 7.632812 0.5625 8.292969 0 9.117188 0 C 9.941406 0 10.601562 0.558594 10.601562 1.25 L 10.601562 6.710938 C 10.601562 7.394531 9.9375 7.957031 9.117188 7.957031 C 8.292969 7.957031 7.632812 7.398438 7.632812 6.710938 Z M 1.664062 11.9375 L 29.949219 11.9375 L 29.949219 5.652344 C 29.949219 5.4375 29.863281 5.25 29.730469 5.109375 C 29.59375 4.972656 29.402344 4.882812 29.199219 4.882812 L 26.488281 4.882812 C 26.035156 4.882812 25.664062 4.503906 25.664062 4.039062 C 25.664062 3.574219 26.035156 3.195312 26.488281 3.195312 L 29.199219 3.195312 C 29.863281 3.195312 30.460938 3.46875 30.894531 3.917969 C 31.332031 4.363281 31.601562 4.972656 31.601562 5.65625 L 31.601562 15.636719 C 31.058594 15.445312 30.503906 15.292969 29.929688 15.179688 L 29.929688 13.617188 L 29.949219 13.617188 L 1.664062 13.617188 L 1.664062 29.898438 C 1.664062 30.117188 1.746094 30.304688 1.882812 30.441406 C 2.019531 30.582031 2.210938 30.667969 2.410156 30.667969 L 15.855469 30.667969 C 16.007812 31.253906 16.199219 31.824219 16.429688 32.371094 L 2.425781 32.371094 C 1.765625 32.371094 1.167969 32.097656 0.730469 31.648438 C 0.292969 31.207031 0.0273438 30.597656 0.0273438 29.914062 L 0.0273438 5.65625 C 0.0273438 4.980469 0.292969 4.367188 0.730469 3.921875 C 1.167969 3.472656 1.761719 3.199219 2.425781 3.199219 L 5.320312 3.199219 C 5.777344 3.199219 6.144531 3.578125 6.144531 4.042969 C 6.144531 4.507812 5.777344 4.886719 5.320312 4.886719 L 2.425781 4.886719 C 2.214844 4.886719 2.03125 4.972656 1.898438 5.113281 C 1.761719 5.25 1.679688 5.449219 1.679688 5.65625 L 1.679688 11.941406 L 1.664062 11.941406 Z M 12.976562 4.882812 C 12.523438 4.882812 12.152344 4.503906 12.152344 4.039062 C 12.152344 3.574219 12.523438 3.195312 12.976562 3.195312 L 18.496094 3.195312 C 18.949219 3.195312 19.320312 3.574219 19.320312 4.039062 C 19.320312 4.503906 18.949219 4.882812 18.496094 4.882812 Z M 12.976562 4.882812 "/>
</g>
</svg>
